<svg width="48" height="40" viewBox="0 0 48 40" fill="none" xmlns="http://www.w3.org/2000/svg">
<path fill-rule="evenodd" clip-rule="evenodd" d="M41.1824 10.8233C45.0705 13.8534 46.9863 18.0438 47.0562 22.8694C47.1025 26.0642 46.5385 29.2044 45.0913 31.9635C44.3637 33.2025 43.4452 34.3565 42.31 35.3927C38.6445 38.7386 33.7258 39.9247 28.7025 39.9966C23.6793 40.0684 18.7283 39.0233 14.9674 35.7837C13.3067 34.3531 12.08 32.6717 11.2137 30.8332C9.35822 30.9439 7.45635 30.4069 5.87858 29.1784L5.87642 29.1767C1.98834 26.1466 0.072475 21.9562 0.00261352 17.1307C-0.0436394 13.9358 0.520615 10.795 1.96788 8.03588C2.69546 6.79686 3.61364 5.64346 4.74885 4.60726C8.41434 1.26145 13.333 0.0752566 18.3563 0.00342939C23.3795 -0.0683978 28.3305 0.976665 32.0914 4.21629C33.7522 5.64691 34.9788 7.32833 35.8451 9.16685C37.7006 9.05607 39.6025 9.59307 41.1802 10.8216L41.1824 10.8233ZM8.43907 16.8958C8.43907 19.1315 9.14161 20.6969 10.7182 21.9727C11.4257 22.5453 11.5378 23.5894 10.9656 24.301C10.3933 25.0125 9.356 25.1234 8.64686 24.5492C6.28855 22.6379 5.14073 20.1359 5.14073 16.8958C5.14073 9.04059 9.58689 5.05754 18.3621 5.05754C27.1373 5.05754 31.5851 9.04059 31.5851 16.8958C31.5851 20.1458 30.4373 22.6495 28.0757 24.5509C27.7722 24.7958 27.4078 24.9149 27.045 24.9149C26.5634 24.9149 26.0835 24.7031 25.7586 24.296C25.188 23.5828 25.3018 22.5403 26.0126 21.9694C27.5859 20.7018 28.2884 19.1364 28.2884 16.8958C28.2884 12.6778 27.1093 8.3671 18.3637 8.3671C9.61822 8.3671 8.43907 12.6795 8.43907 16.8958ZM35.5975 15.6018C36.1698 14.8919 37.2071 14.7777 37.9163 15.3536V15.3519C40.2746 17.2632 41.4224 19.7652 41.4224 23.0053C41.4224 30.8605 36.9746 34.8436 28.1994 34.8436C19.4242 34.8436 14.9764 30.8605 14.9764 23.0053C14.9764 19.7553 16.1242 17.2516 18.4858 15.3503C19.1949 14.7777 20.2339 14.8902 20.8045 15.6051C21.3751 16.3183 21.2613 17.3608 20.5505 17.9317C18.9772 19.1993 18.2747 20.7647 18.2747 23.0053C18.2747 27.2233 19.4538 31.534 28.1994 31.534C36.9449 31.534 38.1241 27.2217 38.1241 23.0053C38.1241 20.7697 37.4215 19.2043 35.8449 17.9284C35.1374 17.3559 35.0253 16.3134 35.5975 15.6018Z" fill="#2C46B1"/>
</svg>
